# xmcd CD database file generated by Grip 3.2.0
# 
# Track frame offsets:
#       150
#       16193
#       32645
#       52129
#       69277
#       94084
#       110037
#       123466
#       147954
#       161754
# 
# Disc length: 2500 seconds
# 
# Revision: 3
# Processed by: cddbd v1.5.2PL0 Copyright (c) Steve Scherf et al.
# Submitted via: Grip 3.2.0
# 
DISCID=8809c20a
DTITLE=Dirty Sweet - ... Of Monarchs and Beggars
DYEAR=2007
DGENRE=Rock
TTITLE0=Baby Come Home
TTITLE1=Delilah
TTITLE2=Come Again
TTITLE3=Goldensole
TTITLE4=Long Line Down
TTITLE5=Born to Bleed
TTITLE6=Sixteen
TTITLE7=Man's Ruin
TTITLE8=Isabel
TTITLE9=Red River
EXTD=
EXTT0=
EXTT1=
EXTT2=
EXTT3=
EXTT4=
EXTT5=
EXTT6=
EXTT7=
EXTT8=
EXTT9=
PLAYORDER=
